<?xml version="1.0" standalone="no"?><!DOCTYPE svg PUBLIC "-//W3C//DTD SVG 1.1//EN" "http://www.w3.org/Graphics/SVG/1.1/DTD/svg11.dtd"><svg t="1776909188173" class="icon" viewBox="0 0 1024 1024" version="1.1" xmlns="http://www.w3.org/2000/svg" p-id="4017" width="256" height="256" xmlns:xlink="http://www.w3.org/1999/xlink"><path d="M740.266667 869.546667H256a62.72 62.72 0 0 1-51.2-23.466667 59.52 59.52 0 0 1-4.693333-66.773333A564.906667 564.906667 0 0 0 274.133333 554.666667l64 3.626666a610.986667 610.986667 0 0 1-67.626666 225.706667 14.933333 14.933333 0 0 0 13.44 21.333333h442.666666a14.506667 14.506667 0 0 0 14.293334-11.093333 512 512 0 0 0-14.293334-237.226667l62.72-17.066666c36.48 130.773333 26.026667 250.666667 7.04 293.973333a59.733333 59.733333 0 0 1-56.106666 35.626667z" p-id="4018" fill="#0baf28"></path><path d="M384 869.546667a31.146667 31.146667 0 0 1-21.333333-8.533334 31.786667 31.786667 0 0 1-1.706667-45.226666A192 192 0 0 0 414.08 704a32.213333 32.213333 0 0 1 32-31.573333c17.493333 0 31.786667 14.08 32 31.573333a253.013333 253.013333 0 0 1-71.04 155.306667 32 32 0 0 1-23.04 10.24zM571.093333 869.546667a32 32 0 0 1-23.466666-53.76A192 192 0 0 0 601.6 704a32.213333 32.213333 0 0 1 32-31.573333c17.493333 0 31.786667 14.08 32 31.573333a253.013333 253.013333 0 0 1-71.04 155.306667 32 32 0 0 1-23.466667 10.24zM827.306667 496l-55.68-114.986667a80.64 80.64 0 0 0-72.96-45.866666H605.866667V202.666667A53.333333 53.333333 0 0 0 552.533333 149.333333h-49.92a53.76 53.76 0 0 0-53.546666 53.333334v132.48H356.266667a81.066667 81.066667 0 0 0-72.96 45.866666l-57.173334 118.4a53.12 53.12 0 0 0 7.253334 57.813334A56.746667 56.746667 0 0 0 277.333333 576h503.68a53.333333 53.333333 0 0 0 48.426667-31.146667 57.813333 57.813333 0 0 0-2.133333-48.853333z m-77.013334 16H304.853333a8.533333 8.533333 0 0 1-7.68-12.373333L341.333333 408.746667a17.066667 17.066667 0 0 1 15.36-9.6h103.68a53.12 53.12 0 0 0 53.12-53.12v-128c0-2.346667 1.92-4.266667 4.266667-4.266667h20.266667c2.346667 0 4.266667 1.92 4.266666 4.266667v128a53.333333 53.333333 0 0 0 53.333334 53.12h103.466666a17.706667 17.706667 0 0 1 15.573334 9.6l43.733333 90.88a8.533333 8.533333 0 0 1-8.106667 12.373333z" p-id="4019" fill="#0baf28"></path></svg>