<?xml version="1.0" standalone="no"?><!DOCTYPE svg PUBLIC "-//W3C//DTD SVG 1.1//EN" "http://www.w3.org/Graphics/SVG/1.1/DTD/svg11.dtd"><svg t="1781160179296" class="icon" viewBox="0 0 1024 1024" version="1.1" xmlns="http://www.w3.org/2000/svg" p-id="20608" width="256" height="256" xmlns:xlink="http://www.w3.org/1999/xlink"><path d="M512 1024A512 512 0 1 1 512 0a512 512 0 0 1 0 1024z m0-82.285714a429.714286 429.714286 0 1 0 0-859.428572 429.714286 429.714286 0 0 0 0 859.428572zM438.345143 604.891429l263.533714-272.384a41.179429 41.179429 0 0 1 59.099429 57.270857l-292.571429 302.445714a41.106286 41.106286 0 0 1-58.660571 0.438857l-146.285715-146.285714a41.106286 41.106286 0 1 1 58.221715-58.148572L438.345143 604.891429z" fill="#3AA5FF" p-id="20609"></path></svg>