<?xml version="1.0" standalone="no"?><!DOCTYPE svg PUBLIC "-//W3C//DTD SVG 1.1//EN" "http://www.w3.org/Graphics/SVG/1.1/DTD/svg11.dtd"><svg t="1776914793072" class="icon" viewBox="0 0 1024 1024" version="1.1" xmlns="http://www.w3.org/2000/svg" p-id="16628" width="256" height="256" xmlns:xlink="http://www.w3.org/1999/xlink"><path d="M967.395364 579.660837 967.395364 115.923269C967.395364 73.23343 933.158958 38.64109 890.914036 38.64109L126.167496 38.64109C83.94482 38.64109 49.708414 73.23343 49.708414 115.923269L49.708414 888.767309C49.708414 931.457148 83.94482 966.049488 126.167496 966.049488L545.769242 966.049488C546.036193 979.107819 546.926028 991.988182 548.460994 1004.712824L126.167496 1004.712824C62.833482 1004.712824 11.46775 952.790945 11.46775 888.767309L11.46775 115.923269C11.46775 51.899633 62.833482 0 126.167496 0L890.914036 0C954.270296 0 1005.636028 51.899633 1005.636028 115.923269L1005.636028 586.290109C993.089353 583.442636 980.364711 581.218049 967.395364 579.660837ZM683.004062 278.763094 260.332385 278.763094C244.982729 278.763094 232.525037 266.327649 232.525037 250.955747 232.525037 235.606092 244.982729 223.1484 260.332385 223.1484L683.004062 223.1484C698.375964 223.1484 710.81141 235.606092 710.81141 250.955747 710.81141 266.327649 698.375964 278.763094 683.004062 278.763094ZM232.525037 492.879668C232.525037 477.530012 244.982729 465.072321 260.332385 465.072321L683.004062 465.072321C698.375964 465.072321 710.81141 477.530012 710.81141 492.879668 710.81141 508.25157 698.375964 520.687015 683.004062 520.687015L260.332385 520.687015C244.982729 520.687015 232.525037 508.25157 232.525037 492.879668Z" p-id="16629" fill="#ccc310"></path><path d="M1006.926289 754.735895C1014.133953 761.988052 1014.133953 773.778367 1006.926289 781.052769L772.610458 1017.860138C765.42504 1025.13454 753.7682 1025.13454 746.582781 1017.860138 739.375117 1010.585736 739.375117 998.817666 746.582781 991.543264L980.898612 754.735895C988.08403 747.461493 999.74087 747.461493 1006.926289 754.735895Z" p-id="16630" fill="#ccc310"></path><path d="M645.964676 883.09461C653.150095 875.842454 664.806934 875.842454 672.014599 883.09461L776.147553 988.362104C783.332971 995.61426 783.332971 1007.404575 776.147553 1014.656731 768.962134 1021.931133 757.305294 1021.931133 750.119876 1014.656731L645.964676 909.411484C638.779257 902.159327 638.779257 890.369012 645.964676 883.09461Z" p-id="16631" fill="#ccc310"></path></svg>