<?xml version="1.0" standalone="no"?><!DOCTYPE svg PUBLIC "-//W3C//DTD SVG 1.1//EN" "http://www.w3.org/Graphics/SVG/1.1/DTD/svg11.dtd"><svg t="1776914923550" class="icon" viewBox="0 0 1024 1024" version="1.1" xmlns="http://www.w3.org/2000/svg" p-id="20166" xmlns:xlink="http://www.w3.org/1999/xlink" width="256" height="256"><path d="M395.702857 586.605714H224.109714a31.963429 31.963429 0 0 1-29.915428-43.446857l170.642285-447.926857a32.036571 32.036571 0 0 1 29.915429-20.553143h287.963429c22.674286 0 38.180571 22.966857 29.622857 44.032L612.864 362.569143h187.099429c27.501714 0 42.203429 32.475429 24.064 53.101714l-458.605715 522.605714c-22.308571 25.380571-63.634286 3.364571-55.003428-29.257142L395.702857 586.459429z m20.992-447.926857l-146.285714 383.853714H437.394286c20.992 0 36.278857 19.894857 30.939428 40.228572l-61.147428 230.912 322.194285-367.104H565.321143a31.963429 31.963429 0 0 1-29.622857-44.032l99.328-243.931429H416.694857z" fill="#d81e06" p-id="20167"></path></svg>