<?xml version="1.0" standalone="no"?><!DOCTYPE svg PUBLIC "-//W3C//DTD SVG 1.1//EN" "http://www.w3.org/Graphics/SVG/1.1/DTD/svg11.dtd"><svg t="1781160130735" class="icon" viewBox="0 0 1024 1024" version="1.1" xmlns="http://www.w3.org/2000/svg" p-id="16621" width="256" height="256" xmlns:xlink="http://www.w3.org/1999/xlink"><path d="M510.3616 90.4704a420.9152 420.9152 0 1 0 420.864 420.864 421.3248 421.3248 0 0 0-420.864-420.864z m0 800.8192a379.9552 379.9552 0 1 1 379.904-379.9552 380.3136 380.3136 0 0 1-379.904 379.9552z" fill="#00A0E9" p-id="16622"></path><path d="M259.4816 439.8592l422.5024-103.5776a24.9344 24.9344 0 0 1 28.4672 34.9696L522.24 766.4128a24.9856 24.9856 0 0 1-46.08-3.1232l-48.2304-149.4016a24.9856 24.9856 0 0 1 5.12-24.32l81.92-91.0336a6.6048 6.6048 0 0 0-8.192-10.24L398.1312 551.936a25.1392 25.1392 0 0 1-24.6272 0.3072l-120.1152-66.56a24.9344 24.9344 0 0 1 6.0928-45.824z" fill="#00A0E9" p-id="16623"></path></svg>