<?xml version="1.0" standalone="no"?><!DOCTYPE svg PUBLIC "-//W3C//DTD SVG 1.1//EN" "http://www.w3.org/Graphics/SVG/1.1/DTD/svg11.dtd"><svg t="1781586310852" class="icon" viewBox="0 0 1024 1024" version="1.1" xmlns="http://www.w3.org/2000/svg" p-id="4841" width="256" height="256" xmlns:xlink="http://www.w3.org/1999/xlink"><path d="M315.8 960.5H196.24c-70.99 0-128.74-57.75-128.74-128.75V199.24c0-70.99 57.75-128.74 128.74-128.74h632.51c70.99 0 128.75 57.75 128.75 128.74v376.87c0 17.67-14.33 32-32 32s-32-14.33-32-32V199.24c0-35.7-29.04-64.74-64.75-64.74H196.24c-35.7 0-64.74 29.04-64.74 64.74v632.51c0 35.7 29.04 64.75 64.74 64.75H315.8c17.67 0 32 14.33 32 32s-14.32 32-32 32z" fill="#1296db" p-id="4842"></path><path d="M598.48 479.15L480.09 363.4 361.7 479.15c-12.64 12.35-12.87 32.61-0.51 45.25 6.27 6.41 14.57 9.63 22.88 9.63 8.07 0 16.14-3.03 22.37-9.12L449 483.3V928c0 17.67 14.33 32 32 32s32-14.33 32-32V485.08l40.74 39.83c12.64 12.35 32.9 12.13 45.25-0.51 12.36-12.64 12.13-32.9-0.51-45.25zM875.79 800.33c-12.36-12.64-32.62-12.87-45.25-0.51L789 840.43V399c0-17.67-14.33-32-32-32s-32 14.33-32 32v441.64l-41.76-40.82c-12.64-12.35-32.9-12.13-45.25 0.51-12.36 12.64-12.13 32.9 0.51 45.25l118.39 115.75 118.39-115.75c12.64-12.35 12.87-32.61 0.51-45.25z" fill="#1296db" p-id="4843"></path></svg>