<?xml version="1.0" standalone="no"?><!DOCTYPE svg PUBLIC "-//W3C//DTD SVG 1.1//EN" "http://www.w3.org/Graphics/SVG/1.1/DTD/svg11.dtd"><svg t="1776914857428" class="icon" viewBox="0 0 1024 1024" version="1.1" xmlns="http://www.w3.org/2000/svg" p-id="18377" width="256" height="256" xmlns:xlink="http://www.w3.org/1999/xlink"><path d="M203.94 570.8c-13.28 0-24.06-10.77-24.06-24.06V277.16c-0.33-25.42 20.63-46.7 46.72-47.14 0.24 0 0.48-0.01 0.72 0 3.19 0.04 6.34 0.38 9.35 1.01 10.59 2.15 22.47 3.26 35.16 3.26 24.42 0 51.24-4.05 79.72-12.05 48.1-13.28 91.97-39.03 126.96-74.47 8.83-9.22 21.56-14.69 34.68-14.75 12.2 0 23.68 4.55 32.46 12.8 21.98 20.31 68.07 57.49 127.86 76.68 23.97 7.88 48.79 11.94 73.93 12.1 13.09 0 25.95-1.25 38.04-3.73 3.87-0.74 7.35-0.98 10.76-1 12.15 0 23.91 4.69 32.86 13.25 9.14 8.65 14.47 20.92 14.51 33.59v103.28c0 13.28-10.77 24.06-24.06 24.06s-24.06-10.77-24.06-24.06v-102c-0.27 0.01-0.48 0.04-0.75 0.09-14.89 3.05-30.99 4.63-47.48 4.63-30.31-0.2-60.08-5.06-88.64-14.46-68.18-21.87-120.34-63.77-145.52-86.98-0.14 0.11-0.32 0.24-0.38 0.29-40.9 41.43-92.18 71.53-148.29 87.03-32.62 9.16-63.82 13.82-92.63 13.82-15.5 0-30.25-1.36-43.85-4.04v268.38c0.04 13.28-10.73 24.05-24.01 24.05z m24.05-293.95v0z m284.86-95.84zM511.72 905.42c-4.43 0-8.86-0.58-13.19-1.75-116.64-31.5-215.21-102.56-270.43-194.97-6.81-11.41-3.09-26.17 8.31-32.99 11.41-6.81 26.17-3.09 32.99 8.31 48.88 81.79 136.96 144.92 241.68 173.2 0.41 0.11 0.85 0.12 1.2 0.02 166.76-46.67 283.25-178.31 283.25-320.1 0-13.28 10.77-24.06 24.06-24.06s24.06 10.77 24.06 24.06c0 83.93-32.47 163.94-93.9 231.38-56.94 62.52-136.68 110.48-224.5 135.06a50.502 50.502 0 0 1-13.53 1.84z" fill="#47cc10" p-id="18378"></path><path d="M701.25 395.55c14.88 13.23 16.22 36.01 2.99 50.89L518.69 655.19c-0.91 1-0.91 1-1.85 1.97-17.83 17.84-46.76 17.84-64.6 0l-112.96-113c-14.07-14.08-14.07-36.9 0-50.97 14.08-14.08 36.9-14.09 50.98-0.01l87.73 87.71c2.95 2.95 7.77 2.81 10.54-0.31l161.81-182.03c13.24-14.9 36.02-16.24 50.91-3z m-26.97-23.96" fill="#47cc10" p-id="18379"></path><path d="M63.82 181.34c13.92-2.96 27.84-6.44 41.88-8.89 7.99-1.29 11.86-4.51 13.15-13.01 1.67-12.63 4.9-25 7.48-37.37 0.38-2.19 0.64-4.38 2.83-5.67 3.22 15.85 6.83 31.57 9.79 47.29 0.9 4.76 2.84 6.57 7.48 7.47 15.47 3.09 30.8 6.7 46.14 11.6-15.21 3.35-30.29 6.83-45.49 9.79-5.03 1.03-7.22 2.84-8.25 7.99-2.84 15.46-6.31 30.93-9.79 47.42-4.39-7.6-4.25-15.72-6.19-23.07-2.2-8.38-4-16.88-5.29-25.52-0.64-4.64-2.96-5.93-7.09-6.83-15.47-3.09-30.93-6.57-46.52-9.92 0-0.25-0.13-0.77-0.13-1.28z" fill="#47cc10" opacity=".67" p-id="18380"></path><path d="M811.31 721.14c16.1-3.43 32.19-7.45 48.43-10.28 9.24-1.49 13.71-5.21 15.2-15.05 1.94-14.6 5.66-28.91 8.64-43.22 0.44-2.53 0.74-5.07 3.27-6.56 3.73 18.33 7.9 36.51 11.32 54.69 1.05 5.51 3.28 7.6 8.64 8.64 17.89 3.58 35.62 7.75 53.35 13.42-17.59 3.87-35.02 7.9-52.6 11.32-5.81 1.19-8.35 3.28-9.54 9.24-3.28 17.88-7.3 35.76-11.32 54.84-5.07-8.79-4.92-18.18-7.15-26.67-2.54-9.69-4.62-19.52-6.11-29.51-0.74-5.36-3.43-6.85-8.2-7.9-17.88-3.57-35.76-7.6-53.8-11.48 0.02-0.29-0.13-0.88-0.13-1.48z" fill="#47cc10" p-id="18381"></path><path d="M102.02 822.39c17.8-3.79 35.61-8.24 53.57-11.37 10.22-1.65 15.16-5.77 16.81-16.65 2.14-16.15 6.26-31.98 9.56-47.8 0.5-2.8 0.83-5.6 3.63-7.25 4.12 20.28 8.73 40.38 12.53 60.5 1.16 6.09 3.63 8.4 9.56 9.56 19.78 3.96 39.4 8.57 59.01 14.84-19.45 4.28-38.74 8.73-58.19 12.52-6.43 1.32-9.23 3.63-10.55 10.22-3.63 19.78-8.08 39.56-12.53 60.66-5.6-9.72-5.43-20.11-7.91-29.51-2.8-10.71-5.1-21.6-6.75-32.64-0.83-5.93-3.79-7.58-9.07-8.73-19.78-3.96-39.56-8.4-59.5-12.69-0.17-0.17-0.17-0.84-0.17-1.66z" fill="#47cc10" opacity=".2" p-id="18382"></path><path d="M559.77 566.46m-194.85 0a194.85 194.85 0 1 0 389.7 0 194.85 194.85 0 1 0-389.7 0Z" fill="#47cc10" opacity=".2" p-id="18383"></path><path d="M821.32 457.14m-23.87 0a23.87 23.87 0 1 0 47.74 0 23.87 23.87 0 1 0-47.74 0Z" fill="#47cc10" p-id="18384"></path><path d="M211.51 627.93m-24.75 0a24.75 24.75 0 1 0 49.5 0 24.75 24.75 0 1 0-49.5 0Z" fill="#47cc10" p-id="18385"></path></svg>