<?xml version="1.0" standalone="no"?><!DOCTYPE svg PUBLIC "-//W3C//DTD SVG 1.1//EN" "http://www.w3.org/Graphics/SVG/1.1/DTD/svg11.dtd"><svg t="1781160044396" class="icon" viewBox="0 0 1024 1024" version="1.1" xmlns="http://www.w3.org/2000/svg" p-id="10087" width="256" height="256" xmlns:xlink="http://www.w3.org/1999/xlink"><path d="M492.556962 985.113924C220.35443 985.113924 0 764.759494 0 492.556962S220.35443 0 492.556962 0s492.556962 220.35443 492.556962 492.556962-220.35443 492.556962-492.556962 492.556962z" fill="#1D86F0" p-id="10088"></path><path d="M492.556962 972.151899c264.425316 0 479.594937-215.16962 479.594937-479.594937S756.982278 12.962025 492.556962 12.962025 12.962025 228.131646 12.962025 492.556962s215.16962 479.594937 479.594937 479.594937z" fill="#1D86F0" p-id="10089"></path><path d="M492.556962 285.164557v-77.772152h12.962025v77.772152c50.551899 3.888608 90.734177 45.367089 90.734178 97.21519H401.822785c0-51.848101 40.182278-93.326582 90.734177-97.21519z m259.240506 155.544304h51.848102c14.258228 0 25.924051 11.665823 25.92405 25.92405v103.696203c0 14.258228-11.665823 25.924051-25.92405 25.924051h-51.848102V440.708861z m-505.518987 0v155.544304h-51.848101c-14.258228 0-25.924051-11.665823-25.924051-25.924051v-103.696203c0-14.258228 11.665823-25.924051 25.924051-25.92405h51.848101z m220.35443 246.278481h64.810127v103.696202h-64.810127v-103.696202z" fill="#C2E0FF" p-id="10090"></path><path d="M311.088608 324.050633h375.898734c57.032911 0 103.696203 46.663291 103.696202 103.696202v181.468355c0 57.032911-46.663291 103.696203-103.696202 103.696202H311.088608c-57.032911 0-103.696203-46.663291-103.696203-103.696202V427.746835c0-57.032911 46.663291-103.696203 103.696203-103.696202z m97.215189 90.734177c-60.921519 0-110.177215 49.255696-110.177215 110.177215s49.255696 110.177215 110.177215 110.177216h181.468355c60.921519 0 110.177215-49.255696 110.177215-110.177216S650.693671 414.78481 589.772152 414.78481h-181.468355z m90.734178 622.177215C416.081013 1036.962025 349.974684 970.855696 349.974684 887.898734S416.081013 738.835443 499.037975 738.835443 648.101266 804.941772 648.101266 887.898734 581.994937 1036.962025 499.037975 1036.962025z m0-803.645569c-18.146835 0-32.405063-14.258228-32.405064-32.405064s14.258228-32.405063 32.405064-32.405063 32.405063 14.258228 32.405063 32.405063-14.258228 32.405063-32.405063 32.405064z m-103.696203 324.050633c-18.146835 0-32.405063-14.258228-32.405063-32.405064s14.258228-32.405063 32.405063-32.405063 32.405063 14.258228 32.405063 32.405063-14.258228 32.405063-32.405063 32.405064z m194.43038 0c-18.146835 0-32.405063-14.258228-32.405063-32.405064s14.258228-32.405063 32.405063-32.405063 32.405063 14.258228 32.405063 32.405063-14.258228 32.405063-32.405063 32.405064z" fill="#FFFFFF" p-id="10091"></path><path d="M408.303797 395.341772h181.468355c71.291139 0 129.620253 58.329114 129.620253 129.620253s-58.329114 129.620253-129.620253 129.620253h-181.468355c-71.291139 0-129.620253-58.329114-129.620253-129.620253s58.329114-129.620253 129.620253-129.620253z m0 19.443038c-60.921519 0-110.177215 49.255696-110.177215 110.177215s49.255696 110.177215 110.177215 110.177216h181.468355c60.921519 0 110.177215-49.255696 110.177215-110.177216S650.693671 414.78481 589.772152 414.78481h-181.468355z" fill="#C2E0FF" p-id="10092"></path></svg>