<?xml version="1.0" standalone="no"?><!DOCTYPE svg PUBLIC "-//W3C//DTD SVG 1.1//EN" "http://www.w3.org/Graphics/SVG/1.1/DTD/svg11.dtd"><svg t="1773195691734" class="icon" viewBox="0 0 1024 1024" version="1.1" xmlns="http://www.w3.org/2000/svg" p-id="15659" xmlns:xlink="http://www.w3.org/1999/xlink" width="200" height="200"><path d="M149.748297 0l724.358095 0.048762a149.894095 149.894095 0 0 1 149.601524 140.04419l0.292572 9.898667V874.154667a149.894095 149.894095 0 0 1-140.092953 149.552762l-9.801143 0.292571h-338.407619a38.473143 38.473143 0 0 1-5.705143-76.55619l5.705143-0.390096h338.407619c37.741714 0 68.803048-28.720762 72.508953-65.487238l0.390095-7.460571V149.991619c0-37.790476-28.720762-68.85181-65.487238-72.557714l-7.509333-0.438857-724.260572-0.048762a72.801524 72.801524 0 0 0-72.801524 72.996571l0.292572 342.698667a38.473143 38.473143 0 0 1-76.946286 0.097524L0.000488 150.040381A149.74781 149.74781 0 0 1 139.84963 0.341333L149.748297 0z m155.062857 571.196952a118.393905 118.393905 0 0 1 118.393905 118.393905v177.542095a118.393905 118.393905 0 0 1-118.393905 118.393905H127.269059a118.393905 118.393905 0 0 1-118.393905-118.393905v-177.542095a118.393905 118.393905 0 0 1 118.393905-118.393905H304.762392z m0 76.946286H127.269059a41.447619 41.447619 0 0 0-41.106286 35.84l-0.390095 5.656381v177.542095a41.447619 41.447619 0 0 0 35.791238 41.057524l5.656381 0.390095H304.762392a41.447619 41.447619 0 0 0 41.106286-35.791238l0.341333-5.656381v-177.542095a41.447619 41.447619 0 0 0-35.791238-41.106286l-5.656381-0.341333 0.048762-0.048762z m461.726476-470.552381l3.218286 0.097524 2.876953 0.341333-6.095239-0.487619a38.521905 38.521905 0 0 1 38.034286 32.816762l0.438857 5.705143v281.502476a38.473143 38.473143 0 0 1-76.55619 5.656381l-0.390095-5.656381-0.097524-187.733333-243.468191 247.076571a38.473143 38.473143 0 0 1-58.806857-49.152l4.047238-4.827428 244.882286-248.539429-187.489524 0.146286a38.473143 38.473143 0 0 1-38.034286-32.816762L448.610011 216.064c0-19.065905 13.945905-35.254857 32.816762-38.034286l5.656381-0.487619h279.405715z" fill="#1296db" p-id="15660"></path></svg>