<?xml version="1.0" standalone="no"?><!DOCTYPE svg PUBLIC "-//W3C//DTD SVG 1.1//EN" "http://www.w3.org/Graphics/SVG/1.1/DTD/svg11.dtd"><svg t="1775184269925" class="icon" viewBox="0 0 1024 1024" version="1.1" xmlns="http://www.w3.org/2000/svg" p-id="11222" xmlns:xlink="http://www.w3.org/1999/xlink" width="200" height="200"><path d="M979.648 358.912L665.088 44.352A42.24 42.24 0 0 0 635.008 32a42.24 42.24 0 0 0-29.952 12.352L399.424 250.24A420.736 420.736 0 0 0 88.832 339.84a42.432 42.432 0 0 0-3.456 63.104L317.312 634.88 42.368 909.632a20.16 20.16 0 0 0-5.888 12.544l-4.352 47.488a20.352 20.352 0 0 0 20.288 22.208c0.64 0 1.28 0 1.92-0.128l47.488-4.352a20.16 20.16 0 0 0 12.544-5.888l274.944-274.944 231.936 231.936c8.32 8.32 19.2 12.416 30.08 12.416a42.24 42.24 0 0 0 33.024-15.872 421.696 421.696 0 0 0 89.6-310.72l205.696-205.632a42.24 42.24 0 0 0 0-59.776z m-270.784 200.704l-31.296 31.296 4.864 43.904a331.84 331.84 0 0 1-38.784 196.48L192.832 380.16a330.24 330.24 0 0 1 196.48-38.784l43.904 4.864 31.296-31.296 170.688-170.688 244.48 244.48-170.88 170.816z" fill="#515151" p-id="11223"></path></svg>