<?xml version="1.0" standalone="no"?><!DOCTYPE svg PUBLIC "-//W3C//DTD SVG 1.1//EN" "http://www.w3.org/Graphics/SVG/1.1/DTD/svg11.dtd"><svg t="1773197339997" class="icon" viewBox="0 0 1024 1024" version="1.1" xmlns="http://www.w3.org/2000/svg" p-id="35770" xmlns:xlink="http://www.w3.org/1999/xlink" width="200" height="200"><path d="M401.834667 709.717333H263.338667l57.002666-324.522666h138.410667l-56.917333 324.522666z" fill="#0050FF" fill-opacity=".6" p-id="35771"></path><path d="M654.165333 709.802667H515.669333l79.786667-454.144H733.866667l-79.701334 454.144z" fill="#0050FF" fill-opacity=".8" p-id="35772"></path><path d="M885.589333 85.333333l-13.056 71.424-38.4 218.794667-2.389333 13.568-3.242667 18.346667-62.549333 356.693333c-10.154667 57.6-65.536 104.704-123.136 104.704H234.581333c-57.514667 0-96.426667-47.104-86.272-104.704l65.706667-374.954667c10.154667-57.6 65.536-104.704 123.136-104.704h146.773333l24.32-139.178666H323.669333c-112.896 0-221.44 92.416-241.322666 205.226666l-79.189334 452.266667c-19.882667 112.810667 56.32 205.141333 169.130667 205.141333h484.181333c112.896 0 221.44-92.330667 241.237334-205.226666l74.922666-427.178667 4.437334-25.002667L1024 85.333333h-138.410667z" fill="#0051FF" p-id="35773"></path></svg>