<?xml version="1.0" standalone="no"?><!DOCTYPE svg PUBLIC "-//W3C//DTD SVG 1.1//EN" "http://www.w3.org/Graphics/SVG/1.1/DTD/svg11.dtd"><svg t="1776129089770" class="icon" viewBox="0 0 1024 1024" version="1.1" xmlns="http://www.w3.org/2000/svg" p-id="4312" xmlns:xlink="http://www.w3.org/1999/xlink" width="200" height="200"><path d="M720 787.5H403.3V565.6c0-14.2 11.5-25.6 25.6-25.6h109.2c5.8 0 11.5-2 16-5.6l50-40c4.5-3.6 10.2-5.6 16-5.6H720c14.2 0 25.6 11.5 25.6 25.6v247.5c0 14.1-11.4 25.6-25.6 25.6z" fill="#FFD45A" p-id="4313"></path><path d="M788.5 353.6H753v-47c0-49.2-40-89.2-89.2-89.2H271.2c-49.2 0-89.2 40-89.2 89.2v409.5c0 49.2 40 89.2 89.2 89.2H788.4c29.5 0 53.5-24 53.5-53.5V407.1c0.1-29.5-23.9-53.5-53.4-53.5zM217.7 716.1V306.6c0-29.5 24-53.5 53.5-53.5h392.5c29.5 0 53.5 24 53.5 53.5v47h-67.8c-12.1 0-24 4.2-33.4 11.7L546.3 421c-3.2 2.5-7.1 3.9-11.2 3.9H360.4c-29.5 0-53.5 24-53.5 53.5v291.1h-35.7c-29.5 0.2-53.5-23.9-53.5-53.4z m588.6 35.7c0 9.8-8 17.8-17.9 17.8H342.6V478.5c0-9.8 8-17.9 17.9-17.9h174.7c12.1 0 24-4.2 33.4-11.7l69.7-55.7c3.2-2.5 7.1-3.9 11.1-3.9h139c9.8 0 17.9 8 17.9 17.8v344.7z" fill="#593A25" p-id="4314"></path></svg>