<?xml version="1.0" standalone="no"?><!DOCTYPE svg PUBLIC "-//W3C//DTD SVG 1.1//EN" "http://www.w3.org/Graphics/SVG/1.1/DTD/svg11.dtd"><svg t="1774424892185" class="icon" viewBox="0 0 1024 1024" version="1.1" xmlns="http://www.w3.org/2000/svg" p-id="5925" xmlns:xlink="http://www.w3.org/1999/xlink" width="200" height="200"><path d="M538.653 76.146C786.965 93.509 974.88 303.679 957.938 545.963c-1.152 16.478-15.447 28.901-31.929 27.749-16.246-1.136-28.553-15.04-27.798-31.218l0.042-0.705c14.61-208.953-148.06-390.888-363.773-405.972-215.713-15.084-402.121 142.44-416.733 351.394-14.61 208.953 148.06 390.889 363.773 405.973 33.653 2.353 67.007 0.538 99.504-5.299 16.261-2.92 31.812 7.891 34.734 24.15 2.922 16.257-7.892 31.804-24.153 34.725-37.355 6.709-75.665 8.794-114.258 6.095C229.035 935.491 41.12 725.322 58.062 483.038 75.004 240.753 290.34 58.782 538.652 76.146z m45.273 474.537l357.808 127.172c12.01 4.461 18.009 17.1 13.506 28.254-2.045 5.518-6.227 10.002-11.616 12.471l-136.158 60.41c-10.475 4.434-18.808 12.694-23.256 23.05l-57.763 136.09c-4.451 11.042-17.733 16.259-28.916 12.033l-0.339-0.131c-5.998-2.231-10.5-7.44-12.748-13.386L555.417 578.938a21.565 21.565 0 0 1 0.721-16.935c2.543-5.319 7.152-9.4 12.785-11.32 4.496-2.23 9.75-2.23 15.003 0z m52.632 80.784l71.895 199.32 21.998-51.823c10.21-23.775 29.085-42.757 52.746-53.206l0.812-0.355 51.973-23.058-199.424-70.878zM508 293.637c122.009 0 220.916 98.884 220.916 220.863 0 16.518-13.394 29.909-29.916 29.909-16.286 0-29.532-13.01-29.907-29.203l-0.008-0.706c0-88.943-72.12-161.046-161.085-161.046S346.915 425.557 346.915 514.5c0 88.054 70.685 159.602 158.421 161.025l2.664 0.021c16.522 0 29.916 13.39 29.916 29.909 0 16.518-13.394 29.908-29.916 29.908-122.009 0-220.916-98.883-220.916-220.863 0-121.979 98.907-220.863 220.916-220.863z" fill="#1296db" p-id="5926"></path></svg>