<?xml version="1.0" standalone="no"?><!DOCTYPE svg PUBLIC "-//W3C//DTD SVG 1.1//EN" "http://www.w3.org/Graphics/SVG/1.1/DTD/svg11.dtd"><svg t="1776820521709" class="icon" viewBox="0 0 1024 1024" version="1.1" xmlns="http://www.w3.org/2000/svg" p-id="11349" xmlns:xlink="http://www.w3.org/1999/xlink" width="256" height="256"><path d="M512 512m-512 0a512 512 0 1 0 1024 0 512 512 0 1 0-1024 0Z" fill="#039BE5" fill-opacity=".1" p-id="11350"></path><path d="M521.066667 803.84c-4.650667 0-9.28-1.216-13.482667-3.754667L270.506667 655.957333a25.813333 25.813333 0 0 1-8.661334-35.541333 25.813333 25.813333 0 0 1 35.541334-8.661333l223.701333 135.957333 224-135.957333a25.92 25.92 0 0 1 35.541333 8.661333 25.92 25.92 0 0 1-8.661333 35.541333l-237.397333 144.128a26.453333 26.453333 0 0 1-13.482667 3.754667z m0-121.813333c-4.650667 0-9.28-1.216-13.482667-3.776L270.506667 534.122667a25.813333 25.813333 0 0 1-8.661334-35.52 25.813333 25.813333 0 0 1 35.541334-8.661334l223.701333 135.936 224-135.936a25.92 25.92 0 0 1 35.541333 8.661334 25.92 25.92 0 0 1-8.661333 35.52l-237.397333 144.128a26.453333 26.453333 0 0 1-13.482667 3.754666z" fill="#039BE5" p-id="11351"></path><path d="M521.557333 559.146667c-4.650667 0-9.28-1.258667-13.397333-3.733334L270.933333 411.306667a25.962667 25.962667 0 0 1 0-44.245334l237.162667-144.170666a25.770667 25.770667 0 0 1 26.837333 0l237.397334 144.234666a25.813333 25.813333 0 0 1-0.064 44.181334l-237.333334 144.085333a26.133333 26.133333 0 0 1-13.397333 3.754667z" fill="#039BE5" p-id="11352"></path><path d="M334.165333 389.248l187.392 113.813333 187.584-113.813333-187.584-113.941333z" fill="#039BE5" p-id="11353"></path></svg>