<?xml version="1.0" standalone="no"?><!DOCTYPE svg PUBLIC "-//W3C//DTD SVG 1.1//EN" "http://www.w3.org/Graphics/SVG/1.1/DTD/svg11.dtd"><svg t="1774431623269" class="icon" viewBox="0 0 1024 1024" version="1.1" xmlns="http://www.w3.org/2000/svg" p-id="8090" xmlns:xlink="http://www.w3.org/1999/xlink" width="200" height="200"><path d="M512 0C229.7 0 0 229.7 0 512s229.7 512 512 512 512-229.7 512-512S794.3 0 512 0z m440.6 512c0 102.6-35.2 197.1-94.2 272L240 165.7c75-59 169.4-94.2 272-94.2 242.9-0.1 440.6 197.6 440.6 440.5z m-881.2 0c0-114.7 44.1-219.3 116.1-297.7l622.2 622.2c-78.4 72-183 116.1-297.7 116.1-242.9 0-440.6-197.7-440.6-440.6z" fill="#27D0D8" p-id="8091"></path></svg>