<?xml version="1.0" standalone="no"?><!DOCTYPE svg PUBLIC "-//W3C//DTD SVG 1.1//EN" "http://www.w3.org/Graphics/SVG/1.1/DTD/svg11.dtd"><svg t="1773196135070" class="icon" viewBox="0 0 1101 1024" version="1.1" xmlns="http://www.w3.org/2000/svg" p-id="32216" xmlns:xlink="http://www.w3.org/1999/xlink" width="215.0390625" height="200"><path d="M588.337257 1024a521.296158 521.296158 0 0 1-65.024202-4.085901 30.067046 30.067046 0 0 1 7.484334-59.667131c139.361664 17.433179 276.284759-29.327692 375.474878-128.556726a451.005684 451.005684 0 1 0-637.815688-637.815688c-99.216062 99.203091-146.080702 236.074301-128.556725 375.474879a30.067046 30.067046 0 0 1-59.667131 7.484333c-19.845807-157.975215 33.270911-313.0449 145.717511-425.452586a511.126804 511.126804 0 1 1 722.84135 722.828379c-96.920175 96.946117-225.59364 149.790441-360.454327 149.790441z" fill="#FFF000" p-id="32217"></path><path d="M238.610042 540.410874l-30.845312 255.984963a0.726382 0.726382 0 0 1-1.167401 0.505874L0.31768 642.195217a0.739354 0.739354 0 0 1 0.155654-1.297112l237.11199-101.278469a0.739354 0.739354 0 0 1 1.024718 0.791238z" fill="#E51373" p-id="32218"></path></svg>