<?xml version="1.0" standalone="no"?><!DOCTYPE svg PUBLIC "-//W3C//DTD SVG 1.1//EN" "http://www.w3.org/Graphics/SVG/1.1/DTD/svg11.dtd"><svg t="1773195221963" class="icon" viewBox="0 0 1024 1024" version="1.1" xmlns="http://www.w3.org/2000/svg" p-id="6826" data-spm-anchor-id="a313x.search_index.0.i8.2e373a81kmCprP" xmlns:xlink="http://www.w3.org/1999/xlink" width="200" height="200"><path d="M727.04 750.592h-68.608v-81.92H686.08V249.856L512 99.328 337.92 253.952v414.72h28.672v81.92H296.96l-40.96-40.96V235.52l13.312-30.72 215.04-190.464h54.272l215.04 186.368 14.336 30.72v478.208z" fill="#1296db" p-id="6827" data-spm-anchor-id="a313x.search_index.0.i5.2e373a81kmCprP" class=""></path><path d="M869.376 638.976l-147.456-18.432-35.84-40.96V350.208l69.632-28.672 147.456 147.456 12.288 28.672v99.328l-46.08 41.984zM768 543.744l65.536 8.192v-35.84L768 449.536v94.208zM154.624 638.976l-46.08-40.96v-99.328l12.288-28.672 147.456-147.456 69.632 28.672v229.376l-35.84 40.96-147.456 17.408z m35.84-123.904v35.84L256 542.72v-94.208l-65.536 66.56z" fill="#1296db" p-id="6828" data-spm-anchor-id="a313x.search_index.0.i4.2e373a81kmCprP" class=""></path><path d="M512 465.92m-67.584 0a67.584 67.584 0 1 0 135.168 0 67.584 67.584 0 1 0-135.168 0Z" fill="#1afa29" p-id="6829" data-spm-anchor-id="a313x.search_index.0.i6.2e373a81kmCprP" class="selected"></path><path d="M479.232 660.48h58.368v233.472h-58.368zM391.168 723.968h58.368v157.696h-58.368zM461.824 922.624h58.368v88.064h-58.368zM574.464 748.544h58.368v188.416h-58.368z" fill="#63F7DE" p-id="6830" data-spm-anchor-id="a313x.search_index.0.i9.2e373a81kmCprP" class="selected"></path></svg>