<?xml version="1.0" standalone="no"?><!DOCTYPE svg PUBLIC "-//W3C//DTD SVG 1.1//EN" "http://www.w3.org/Graphics/SVG/1.1/DTD/svg11.dtd"><svg t="1776394915681" class="icon" viewBox="0 0 1024 1024" version="1.1" xmlns="http://www.w3.org/2000/svg" p-id="7041" xmlns:xlink="http://www.w3.org/1999/xlink" width="200" height="200"><path d="M511.488 1.024C227.84 1.024 0 228.864 0 512.512S227.84 1024 511.488 1024s511.488-227.84 511.488-511.488S795.136 1.024 511.488 1.024z m0 971.776C258.048 972.8 51.2 765.952 51.2 512.512S258.048 52.1728 511.488 52.1728c253.44 0 460.3392 206.8992 460.3392 460.288 0 253.44-206.8992 460.3904-460.288 460.3904z" fill="#d81e06" p-id="7042" data-spm-anchor-id="a313x.search_index.0.i7.29573a81uX1Plv" class="selected"></path><path d="M639.3856 349.7472H383.6416a35.7376 35.7376 0 0 0-34.8672 34.8672v255.744c0 18.6368 16.2304 34.8672 34.816 34.8672h255.7952a35.7376 35.7376 0 0 0 34.816-34.816V384.5632a35.7376 35.7376 0 0 0-34.816-34.8672z" fill="#F65952" p-id="7043"></path></svg>