<?xml version="1.0" standalone="no"?><!DOCTYPE svg PUBLIC "-//W3C//DTD SVG 1.1//EN" "http://www.w3.org/Graphics/SVG/1.1/DTD/svg11.dtd"><svg t="1773195323703" class="icon" viewBox="0 0 1024 1024" version="1.1" xmlns="http://www.w3.org/2000/svg" p-id="9158" xmlns:xlink="http://www.w3.org/1999/xlink" width="200" height="200"><path d="M512 97.74775309a414.25224691 414.25224691 0 1 1-0.08285045 828.58734428A414.25224691 414.25224691 0 0 1 512 97.74775309z" fill="#FF9D34" p-id="9159"></path><path d="M512 1008.93699539c-274.15213701 0-497.1026963-222.86770883-497.1026963-497.01984584 0-274.15213701 222.95055929-497.1026963 497.1026963-497.1026963a497.59979899 497.59979899 0 0 1 497.01984585 497.1026963A497.59979899 497.59979899 0 0 1 512 1008.93699539zM512 180.59820247C329.14905822 180.59820247 180.59820247 329.14905822 180.59820247 512a331.73319933 331.73319933 0 0 0 331.40179753 331.31894708A331.73319933 331.73319933 0 0 0 843.31894708 512 331.73319933 331.73319933 0 0 0 512 180.59820247z" fill="#FFCD97" p-id="9160"></path></svg>